# xmcd CD database file
#
# Track frame offsets:
#	150
#	34156
#	60453
#	84824
#	127652
#	165141
#
# Disc length: 2693 seconds
#
# Revision: 0
# Processed by: cddbd v1.5.2PL0 Copyright (c) Steve Scherf et al.
# Submitted via: CDex 1.70beta3
#
DISCID=320a8306
DTITLE=Lou Donaldson - Say It Loud!
DYEAR=1968
DGENRE=Jazz
TTITLE0=Say It Loud, I'm Black And I'm Proud
TTITLE1=Summertime
TTITLE2=Caravan
TTITLE3=Snake Bone
TTITLE4=Brother Soul
TTITLE5=Brother Soul (Alternate Take)
EXTD=YEAR: 1968
EXTT0=
EXTT1=
EXTT2=
EXTT3=
EXTT4=
EXTT5=
PLAYORDER=
